<svg width="56" height="49" viewBox="0 0 56 49" fill="none" xmlns="http://www.w3.org/2000/svg">
<path d="M28 12.25L21 0L35 0L28 12.25Z" fill="#ED1A7F"/>
<path d="M21 24.5L14 12.25L28 12.25L21 24.5Z" fill="#BE1C80"/>
<path d="M35 24.5L28 12.25L42 12.25L35 24.5Z" fill="#BE1C80"/>
<path d="M14 36.75L7 24.5H21L14 36.75Z" fill="#7F277D"/>
<path d="M28 36.75L21 24.5H35L28 36.75Z" fill="#BE1C80"/>
<path d="M42 36.75L35 24.5H49L42 36.75Z" fill="#7F277D"/>
<path d="M49 49L42 36.75H56L49 49Z" fill="#492979"/>
<path d="M7 49L0 36.75H14L7 49Z" fill="#492979"/>
<path d="M21 24.5L28 36.75H14L21 24.5Z" fill="#9D2480"/>
<path d="M7 24.5L14 36.75H0L7 24.5Z" fill="#63297B"/>
<path d="M14 12.25L21 24.5H7L14 12.25Z" fill="#9D2480"/>
<path d="M21 0L28 12.25H14L21 0Z" fill="#DB0D7F"/>
<path d="M35 0L42 12.25H28L35 0Z" fill="#DB0D7F"/>
<path d="M42 12.25L49 24.5H35L42 12.25Z" fill="#9D2480"/>
<path d="M49 24.5L56 36.75H42L49 24.5Z" fill="#63297B"/>
</svg>
